<svg id="Layer_1" enable-background="new 0 0 256 256" height="512" viewBox="0 0 256 256" width="512" xmlns="http://www.w3.org/2000/svg"><g id="Layer_37"><g><path d="m227 2.5h-198c-.9 0-1.6.7-1.6 1.7v246.7c0 1.4 1.2 2.6 2.6 2.6h196c1.4 0 2.6-1.2 2.6-2.6v-246.7c0-1-.7-1.7-1.6-1.7z" fill="#edf4fc"/><path d="m227 2.5h-198c-.9 0-1.6.7-1.6 1.7v16.3h201.3v-16.3c-.1-1-.8-1.7-1.7-1.7z" fill="#5290db"/><circle cx="42.3" cy="11.5" r="2.9"/><circle cx="52.4" cy="11.5" r="2.9"/><circle cx="62.5" cy="11.5" r="2.9"/><g fill="#9be5f9"><path d="m56.2 60.5h143.5c1.3 0 2.3 1 2.3 2.3v12.5c0 1.3-1 2.3-2.3 2.3h-143.5c-1.3 0-2.3-1-2.3-2.3v-12.5c0-1.3 1.1-2.3 2.3-2.3z"/><path d="m56.2 99.1h143.5c1.3 0 2.3 1 2.3 2.3v12.5c0 1.3-1 2.3-2.3 2.3h-143.5c-1.3 0-2.3-1-2.3-2.3v-12.5c0-1.3 1.1-2.3 2.3-2.3z"/><path d="m56.2 137.7h143.5c1.3 0 2.3 1 2.3 2.3v12.5c0 1.3-1 2.3-2.3 2.3h-143.5c-1.3 0-2.3-1-2.3-2.3v-12.5c0-1.3 1.1-2.3 2.3-2.3z"/></g><path d="m255.8 213.2c-4-.7-7.1-3.8-7.9-7.7 0-.1-.1-.2-.2-.1-.1 0-.1.1-.1.1-.8 4-3.9 7-7.9 7.7-.1 0-.2.1-.1.2 0 .1.1.1.1.1 4 .7 7.1 3.8 7.9 7.7 0 .1.1.2.2.1.1 0 .1-.1.1-.1.8-4 3.9-7 7.9-7.7.1 0 .2-.1.1-.2.1 0 0 0-.1-.1z" fill="#3caadc"/><circle cx="15" cy="119" fill="#ef4460" r="3"/><circle cx="15" cy="32" fill="#b2e26d" r="3"/><circle cx="242" cy="181" fill="#f5c84c" r="3"/><path d="m12.6 89.2h-2.1v-2.1c0-1.5-1.3-2.8-2.8-2.8s-2.8 1.3-2.8 2.8v2.1h-2.1c-1.5 0-2.8 1.3-2.8 2.8s1.3 2.8 2.8 2.8h2.1v2.1c0 1.5 1.3 2.8 2.8 2.8s2.8-1.3 2.8-2.8v-2.1h2.1c1.5 0 2.8-1.3 2.8-2.8s-1.3-2.8-2.8-2.8z" fill="#f5c84c"/><path d="m59.6 167.8h14.1c2.3 0 4.2 1.9 4.2 4.2v14.1c0 2.3-1.9 4.2-4.2 4.2h-14.1c-2.3 0-4.2-1.9-4.2-4.2v-14.1c0-2.4 1.9-4.2 4.2-4.2z" fill="#87d147"/><path d="m104.6 218.4v-9.9c0-2.1-1.7-3.9-3.9-3.9h-41.4c-2.1 0-3.9 1.7-3.9 3.9v9.9c0 2.1 1.7 3.9 3.9 3.9h41.4c2.2 0 3.9-1.8 3.9-3.9z" fill="#87d147"/><path d="m227 0h-198c-2.3 0-4.1 1.9-4.2 4.2v246.7c0 2.8 2.3 5.1 5.1 5.1h196c2.8 0 5.1-2.3 5.1-5.1v-246.7c.1-2.3-1.7-4.2-4-4.2zm-.9 250.9c0 .1-.1.1-.1.1h-196c-.1 0-.1-.1-.1-.1v-228h196.3v228zm0-233h-196.2v-12.9h196.3v12.9z"/><path d="m56.2 80h143.5c2.6 0 4.8-2.1 4.8-4.8v-12.4c0-2.6-2.1-4.8-4.8-4.8h-143.5c-2.6 0-4.8 2.1-4.8 4.8v12.5c0 2.6 2.2 4.7 4.8 4.7zm.2-17h143.1v12h-143.1z"/><path d="m53.9 51.7h35.8c1.4 0 2.5-1.1 2.5-2.5s-1.1-2.5-2.5-2.5h-35.8c-1.4 0-2.5 1.1-2.5 2.5s1.2 2.5 2.5 2.5z"/><path d="m56.2 118.6h143.5c2.6 0 4.8-2.1 4.8-4.8v-12.5c0-2.6-2.1-4.8-4.8-4.8h-143.5c-2.6 0-4.8 2.1-4.8 4.8v12.5c0 2.7 2.2 4.8 4.8 4.8zm.2-17h143.1v12.1h-143.1z"/><path d="m53.9 90.4h35.8c1.4 0 2.5-1.1 2.5-2.5s-1.1-2.5-2.5-2.5h-35.8c-1.4 0-2.5 1.1-2.5 2.5s1.2 2.5 2.5 2.5z"/><path d="m56.2 157.3h143.5c2.6 0 4.8-2.1 4.8-4.8v-12.5c0-2.6-2.1-4.8-4.8-4.8h-143.5c-2.6 0-4.8 2.1-4.8 4.8v12.5c0 2.6 2.2 4.8 4.8 4.8zm.2-17.1h143.1v12.1h-143.1z"/><path d="m53.9 129h35.8c1.4 0 2.5-1.1 2.5-2.5s-1.1-2.5-2.5-2.5h-35.8c-1.4 0-2.5 1.1-2.5 2.5s1.2 2.5 2.5 2.5z"/><path d="m63.6 183.2c1 1 2.6 1 3.5 0l5.3-5.3c1-1 1-2.6 0-3.5-1-1-2.6-1-3.5 0l-3.5 3.5-1.2-1.2c-1-1-2.5-1-3.5 0s-1 2.5 0 3.5z"/><path d="m59.6 192.8h14.1c3.7 0 6.7-3 6.7-6.7v-14.1c0-3.7-3-6.7-6.7-6.7h-14.1c-3.7 0-6.7 3-6.7 6.7v14.1c0 3.7 3 6.7 6.7 6.7zm-1.7-20.9c0-.9.8-1.7 1.7-1.7h14.1c.9 0 1.7.8 1.7 1.7v14.1c0 .9-.8 1.7-1.7 1.7h-14.1c-.9 0-1.7-.8-1.7-1.7z"/><path d="m200.6 166.3h-111.6c-1.4 0-2.5 1.1-2.5 2.5s1.1 2.5 2.5 2.5h111.6c1.4 0 2.5-1.1 2.5-2.5s-1.1-2.5-2.5-2.5z"/><path d="m200.6 176.5h-111.6c-1.4 0-2.5 1.1-2.5 2.5s1.1 2.5 2.5 2.5h111.6c1.4 0 2.5-1.1 2.5-2.5s-1.1-2.5-2.5-2.5z"/><path d="m147.5 186.7h-58.5c-1.4 0-2.5 1.1-2.5 2.5s1.1 2.5 2.5 2.5h58.5c1.4 0 2.5-1.1 2.5-2.5s-1.1-2.5-2.5-2.5z"/><path d="m100.7 202.1h-41.4c-3.5 0-6.4 2.9-6.4 6.4v9.9c0 3.5 2.9 6.4 6.4 6.4h41.4c3.5 0 6.4-2.9 6.4-6.4v-9.9c0-3.6-2.9-6.4-6.4-6.4zm1.4 16.3c0 .8-.6 1.4-1.4 1.4h-41.4c-.8 0-1.4-.6-1.4-1.4v-9.9c0-.8.6-1.4 1.4-1.4h41.4c.8 0 1.4.6 1.4 1.4z"/></g></g></svg>