<svg height="480pt" viewBox="0 0 480 480" width="480pt" xmlns="http://www.w3.org/2000/svg"><path d="m240 0c-132.546875 0-240 107.453125-240 240s107.453125 240 240 240 240-107.453125 240-240c-.148438-132.484375-107.515625-239.851562-240-240zm0 464c-123.710938 0-224-100.289062-224-224s100.289062-224 224-224 224 100.289062 224 224c-.140625 123.652344-100.347656 223.859375-224 224zm0 0"/><path d="m356.648438 209.496094-112-80c-2.78125-1.984375-6.515626-1.984375-9.296876 0l-112 80c-2.824218 2.023437-4.019531 5.636718-2.960937 8.945312 1.0625 3.308594 4.136719 5.554688 7.609375 5.558594h24v120c0 4.417969 3.582031 8 8 8h160c4.417969 0 8-3.582031 8-8v-120h24c3.472656-.003906 6.546875-2.25 7.609375-5.558594 1.058594-3.308594-.136719-6.921875-2.960937-8.945312zm-116.648438-63.664063 87.039062 62.167969h-174.078124zm-16 190.167969v-48c0-8.835938 7.164062-16 16-16s16 7.164062 16 16v48zm48 0v-48c0-17.671875-14.328125-32-32-32s-32 14.328125-32 32v48h-40v-112h144v112zm0 0"/></svg>