<svg height="496pt" viewBox="0 -4 496 496" width="496pt" xmlns="http://www.w3.org/2000/svg"><path d="m80 80.019531c0 8.835938-7.164062 16-16 16s-16-7.164062-16-16c0-8.835937 7.164062-16 16-16s16 7.164063 16 16zm0 0" fill="#699ce6"/><path d="m464 152.019531c0 8.835938-7.164062 16-16 16s-16-7.164062-16-16c0-8.835937 7.164062-16 16-16s16 7.164063 16 16zm0 0" fill="#dc6068"/><path d="m208 392.019531v56c0 22.085938 17.910156 40 40 40s40-17.914062 40-40v-56" fill="#999"/><path d="m236 485.988281c16.183594-5.121093 28-20.082031 28-37.96875v-56h-56v56c0 17.878907 11.816406 32.839844 28 37.96875zm0 0" fill="#bab8b9"/><path d="m392 152.019531c0-84.929687-73.527344-152.6875-160.398438-143.097656-66.90625 7.394531-120.609374 62.074219-126.9375 129.089844-4.601562 48.742187 15.113282 93.085937 48.433594 122.304687 24.496094 21.484375 38.902344 52.207032 38.902344 84.789063v46.914062h112v-46.914062c0-32.320313 13.921875-63.101563 38.328125-84.277344 30.433594-26.410156 49.671875-65.363281 49.671875-108.808594zm0 0" fill="#eebc5a"/><path d="m310.328125 260.820312c30.433594-26.402343 49.671875-65.355468 49.671875-108.800781 0-74.152343-56.0625-135.191406-128.105469-143.113281-.09375.007812-.191406.007812-.285156.015625-66.90625 7.394531-120.609375 62.074219-126.9375 129.082031-4.601563 48.742188 15.113281 93.085938 48.433594 122.300782 24.488281 21.496093 38.894531 52.21875 38.894531 84.800781v46.914062h80v-46.914062c0-32.320313 13.921875-63.101563 38.328125-84.285157zm0 0" fill="#f8cf6a"/><path d="m304 184.019531c0 30.925781-25.070312 56-56 56s-56-25.074219-56-56c0-30.929687 25.070312-56 56-56s56 25.070313 56 56zm0 0" fill="#d9d7d8"/><path d="m280 184.019531c0-30.199219-19.699219-54.679687-44-54.679687s-44 24.480468-44 54.679687 19.699219 54.679688 44 54.679688 44-24.480469 44-54.679688zm0 0" fill="#efedee"/><path d="m304 400.019531h-112c-4.414062 0-8-3.585937-8-8v-46.914062c0-29.894531-13.183594-58.605469-36.183594-78.773438-37.160156-32.59375-55.792968-79.640625-51.121094-129.074219 6.71875-71.128906 63.082032-128.445312 134.023438-136.289062 43.90625-4.847656 86.035156 8.578125 118.65625 37.792969 32.167969 28.816406 50.625 70.097656 50.625 113.257812 0 44.070313-19.113281 85.933594-52.433594 114.839844-22.597656 19.625-35.566406 48.144531-35.566406 78.246094v46.914062c0 4.414063-3.585938 8-8 8zm-104-16h96v-38.914062c0-34.742188 14.976562-67.664063 41.089844-90.328125 29.804687-25.871094 46.910156-63.328125 46.910156-102.757813 0-38.617187-16.511719-75.554687-45.304688-101.335937-29.183593-26.144532-66.910156-38.144532-106.214843-33.800782-63.441407 7.007813-113.839844 58.265626-119.847657 121.886719-4.183593 44.265625 12.488282 86.378907 45.734376 115.535157 26.457031 23.203124 41.632812 56.296874 41.632812 90.800781zm0 0" fill="#bab8b9"/><path d="m184 416.019531h128v16h-128zm0 0" fill="#bc8f6f"/><path d="m184 424.019531h128v8h-128zm0 0" fill="#cb9e78"/><g fill="#bab8b9"><path d="m304.503906 190.25-1.015625-15.96875c50.230469-3.199219 95.824219-10.847656 128.375-21.535156l4.992188 15.199218c-33.800781 11.097657-80.800781 19.015626-132.351563 22.304688zm0 0"/><path d="m467.335938 155.234375-7.632813-14.0625c13.089844-7.097656 20.296875-14.609375 20.296875-21.152344 0-15.074219-37.375-36.664062-119.441406-48.457031l2.273437-15.832031c40.039063 5.753906 133.167969 23.527343 133.167969 64.289062 0 13.046875-9.648438 24.902344-28.664062 35.214844zm0 0"/><path d="m81.078125 82.304688-4.09375-15.46875c16.71875-4.425782 35.671875-8.167969 56.320313-11.136719l2.269531 15.832031c-20.03125 2.886719-38.367188 6.503906-54.496094 10.773438zm0 0"/><path d="m191.496094 190.25c-88.335938-5.625-191.496094-27.398438-191.496094-70.230469 0-16.546875 15.359375-31.039062 45.664062-43.066406l5.902344 14.867187c-22.597656 8.972657-35.566406 19.253907-35.566406 28.199219 0 21.144531 66.023438 47.222657 176.503906 54.261719zm0 0"/><path d="m448 176.019531c-13.230469 0-24-10.769531-24-24 0-13.234375 10.769531-24 24-24s24 10.765625 24 24c0 13.230469-10.769531 24-24 24zm0-32c-4.40625 0-8 3.589844-8 8 0 4.40625 3.59375 8 8 8s8-3.59375 8-8c0-4.410156-3.59375-8-8-8zm0 0"/><path d="m64 104.019531c-13.230469 0-24-10.769531-24-24 0-13.234375 10.769531-24 24-24s24 10.765625 24 24c0 13.230469-10.769531 24-24 24zm0-32c-4.40625 0-8 3.589844-8 8 0 4.40625 3.59375 8 8 8s8-3.59375 8-8c0-4.410156-3.59375-8-8-8zm0 0"/></g><path d="m240 240.019531h16v120h-16zm0 0" fill="#bc8f6f"/><path d="m240 32.019531h16v48h-16zm0 0" fill="#efedee"/><path d="m178.34375 61.679688 11.3125-11.316407 32.003906 32.003907-11.316406 11.3125zm0 0" fill="#efedee"/><path d="m274.34375 82.359375 32-32 11.3125 11.316406-32 32zm0 0" fill="#efedee"/><path d="m248 248.019531c-35.289062 0-64-28.714843-64-64 0-35.289062 28.710938-64 64-64s64 28.710938 64 64c0 35.285157-28.710938 64-64 64zm0-112c-26.472656 0-48 21.527344-48 48 0 26.472657 21.527344 48 48 48s48-21.527343 48-48c0-26.472656-21.527344-48-48-48zm0 0" fill="#bab8b9"/><path d="m168 352.019531h160v16h-160zm0 0" fill="#bc8f6f"/><path d="m168 360.019531h160v8h-160zm0 0" fill="#cb9e78"/></svg>